<svg width="219" height="34" viewBox="0 0 219 34" fill="none" xmlns="http://www.w3.org/2000/svg">
<path d="M1.45599 32.808C0.175993 32.312 -0.208007 31.432 0.303993 30.168L11.728 2.03999C12.208 0.983994 12.96 0.455994 13.984 0.455994H14.08C15.12 0.503994 15.824 1.03199 16.192 2.03999L27.808 30.168C28.32 31.432 27.952 32.312 26.704 32.808C25.44 33.304 24.56 32.936 24.064 31.704L21.472 25.416H6.51999L4.04799 31.704C3.55199 32.952 2.68799 33.32 1.45599 32.808ZM8.10399 21.384H19.816L13.84 6.83999L8.10399 21.384Z" fill="black"/>
<path d="M53.7992 8.66399C55.1432 8.66399 55.8152 9.33599 55.8152 10.68V30.984C55.8152 32.328 55.1432 33 53.7992 33C52.4552 33 51.7832 32.328 51.7832 30.984V30.192C50.0872 32.064 47.5912 33 44.2952 33H42.9512C39.7672 33 37.3992 32.232 35.8472 30.696C34.3112 29.144 33.5432 26.776 33.5432 23.592V10.68C33.5432 9.33599 34.2152 8.66399 35.5592 8.66399C36.9032 8.66399 37.5752 9.33599 37.5752 10.68V23.592C37.5752 25.672 37.9512 27.088 38.7032 27.84C39.4712 28.592 40.8872 28.968 42.9512 28.968H44.2952C46.2152 28.968 47.8872 28.744 49.3112 28.296C50.7512 27.848 51.5752 27.16 51.7832 26.232V10.68C51.7832 9.33599 52.4552 8.66399 53.7992 8.66399Z" fill="black"/>
<path d="M76.0765 33C72.9085 33 70.5725 32.248 69.0685 30.744C67.5645 29.24 66.8125 26.92 66.8125 23.784V12.696H64.4605C63.1165 12.696 62.4445 12.024 62.4445 10.68C62.4445 9.33599 63.1165 8.66399 64.4605 8.66399H66.8125V5.15999C66.8125 3.81599 67.4845 3.14399 68.8285 3.14399C70.1725 3.14399 70.8445 3.81599 70.8445 5.15999V8.66399H76.3645C77.7085 8.66399 78.3805 9.33599 78.3805 10.68C78.3805 12.024 77.7085 12.696 76.3645 12.696H70.8445V23.784C70.8445 25.816 71.2125 27.192 71.9485 27.912C72.6845 28.616 74.0605 28.968 76.0765 28.968C76.7005 28.968 77.1885 29.128 77.5405 29.448C77.9085 29.768 78.0925 30.28 78.0925 30.984C78.0925 32.328 77.4205 33 76.0765 33Z" fill="black"/>
<path d="M92.248 33C89.064 33 86.696 32.232 85.144 30.696C83.608 29.16 82.84 26.808 82.84 23.64V18.072C82.84 14.856 83.608 12.488 85.144 10.968C86.696 9.43199 89.064 8.66399 92.248 8.66399H96.184C99.384 8.66399 101.752 9.43199 103.288 10.968C104.824 12.504 105.592 14.872 105.592 18.072V23.592C105.592 26.776 104.824 29.144 103.288 30.696C101.752 32.232 99.384 33 96.184 33H92.248ZM86.872 23.64C86.872 25.704 87.248 27.112 88 27.864C88.752 28.6 90.168 28.968 92.248 28.968H96.184C98.28 28.968 99.696 28.592 100.432 27.84C101.184 27.088 101.56 25.672 101.56 23.592V18.072C101.56 15.976 101.184 14.56 100.432 13.824C99.696 13.072 98.28 12.696 96.184 12.696H92.248C90.856 12.696 89.768 12.856 88.984 13.176C88.216 13.48 87.672 14.024 87.352 14.808C87.032 15.576 86.872 16.664 86.872 18.072V23.64Z" fill="black"/>
<path d="M116.43 33C115.086 33 114.414 32.328 114.414 30.984V2.47199C114.414 1.12799 115.086 0.455994 116.43 0.455994C117.31 0.455994 118.046 0.887994 118.638 1.75199L129.966 18.792L129.102 18.936L140.526 1.75199C141.07 0.887994 141.886 0.455994 142.974 0.455994C144.062 0.455994 144.606 1.12799 144.606 2.47199V30.984C144.606 32.328 143.934 33 142.59 33C141.246 33 140.574 32.328 140.574 30.984V6.50399L141.822 6.93599L131.742 21.768C131.15 22.632 130.334 23.064 129.294 23.064C128.574 23.064 127.918 22.632 127.326 21.768L117.246 6.93599L118.446 7.27199V30.984C118.446 32.328 117.774 33 116.43 33Z" fill="#1D4ED8"/>
<path d="M162.074 33C159.386 33 157.386 32.344 156.074 31.032C154.762 29.72 154.106 27.72 154.106 25.032C154.106 22.344 154.754 20.344 156.05 19.032C157.362 17.72 159.37 17.064 162.074 17.064H172.226C172.13 15.384 171.69 14.24 170.906 13.632C170.122 13.008 168.778 12.696 166.874 12.696H164.09C162.49 12.696 161.298 12.808 160.514 13.032C159.73 13.24 159.178 13.624 158.858 14.184C158.57 14.856 158.274 15.32 157.97 15.576C157.666 15.832 157.21 15.96 156.602 15.96C155.93 15.96 155.402 15.776 155.018 15.408C154.634 15.024 154.522 14.52 154.682 13.896C155.162 12.088 156.162 10.768 157.682 9.936C159.218 9.08799 161.354 8.66399 164.09 8.66399H166.874C170.074 8.66399 172.442 9.43199 173.978 10.968C175.514 12.504 176.282 14.872 176.282 18.072V30.984C176.282 32.328 175.61 33 174.266 33C172.922 33 172.25 32.328 172.25 30.984V29.904C170.538 31.968 168.042 33 164.762 33H162.074ZM162.074 28.968H164.762C165.946 28.968 167.058 28.864 168.098 28.656C169.138 28.432 170.026 28.032 170.762 27.456C171.514 26.88 172.01 26.056 172.25 24.984V21.096H162.074C160.49 21.096 159.434 21.36 158.906 21.888C158.394 22.416 158.138 23.464 158.138 25.032C158.138 26.616 158.394 27.672 158.906 28.2C159.434 28.712 160.49 28.968 162.074 28.968Z" fill="#1D4ED8"/>
<path d="M187.82 33C186.476 33 185.804 32.328 185.804 30.984V10.68C185.804 9.33599 186.476 8.66399 187.82 8.66399C189.164 8.66399 189.836 9.33599 189.836 10.68V12.552C190.78 11.272 191.98 10.304 193.436 9.64799C194.908 8.99199 196.589 8.66399 198.477 8.66399C199.821 8.66399 200.492 9.33599 200.492 10.68C200.492 12.024 199.821 12.696 198.477 12.696C195.709 12.696 193.596 13.208 192.14 14.232C190.684 15.256 189.916 16.608 189.836 18.288V30.984C189.836 32.328 189.164 33 187.82 33Z" fill="#1D4ED8"/>
<path d="M216.561 33C213.393 33 211.057 32.248 209.553 30.744C208.049 29.24 207.297 26.92 207.297 23.784V12.696H204.945C203.601 12.696 202.929 12.024 202.929 10.68C202.929 9.33599 203.601 8.66399 204.945 8.66399H207.297V5.15999C207.297 3.81599 207.969 3.14399 209.313 3.14399C210.657 3.14399 211.329 3.81599 211.329 5.15999V8.66399H216.849C218.193 8.66399 218.865 9.33599 218.865 10.68C218.865 12.024 218.193 12.696 216.849 12.696H211.329V23.784C211.329 25.816 211.697 27.192 212.433 27.912C213.169 28.616 214.545 28.968 216.561 28.968C217.185 28.968 217.673 29.128 218.025 29.448C218.393 29.768 218.577 30.28 218.577 30.984C218.577 32.328 217.905 33 216.561 33Z" fill="#1D4ED8"/>
</svg>
